<svg width="275" height="54" viewBox="0 0 275 54" fill="none" xmlns="http://www.w3.org/2000/svg">
<path d="M18.516 26.024C19.716 25.64 20.316 24.848 20.316 23.648V22.028H21.936V31.676H20.316V29.84C20.316 28.904 19.716 28.184 18.516 27.68H11.892V37.724C12.012 38.42 12.384 38.936 13.008 39.272H16.176V41H4.44V39.38H6.996C7.668 39.284 8.16 38.936 8.472 38.336V17.78C8.4 17.372 8.208 17.024 7.896 16.736C7.608 16.424 7.236 16.232 6.78 16.16H4.44V14.54H26.184V20.264H24.564V18.068C24.468 17.396 23.868 16.784 22.764 16.232H13.188C12.78 16.304 12.348 16.76 11.892 17.6V26.024H18.516ZM40.1146 22.496H45.8386V38.624C45.9826 38.792 46.1626 38.876 46.3786 38.876C46.5226 38.876 46.9666 38.408 47.7106 37.472V39.092C47.3266 40.676 46.5466 41.468 45.3706 41.468C44.1946 41.468 43.3426 40.616 42.8146 38.912V38.12C41.9266 40.4 39.9586 41.54 36.9106 41.54C32.9026 41.516 30.8986 38.552 30.8986 32.648V24.116H28.1986V22.496H33.8866V31.928C33.9346 36.968 35.0386 39.488 37.1986 39.488C40.9426 39.488 42.8146 37.052 42.8146 32.18V24.116H40.1146V22.496ZM51.0139 18.428C50.5579 17.948 50.3299 17.384 50.3299 16.736C50.3299 16.088 50.5579 15.536 51.0139 15.08C51.4939 14.6 52.0579 14.36 52.7059 14.36C53.3539 14.36 53.9059 14.6 54.3619 15.08C54.8419 15.536 55.0819 16.088 55.0819 16.736C55.0819 17.384 54.8419 17.948 54.3619 18.428C53.9059 18.884 53.3539 19.112 52.7059 19.112C52.0579 19.112 51.4939 18.884 51.0139 18.428ZM54.2539 22.28V41.432C54.2539 43.16 53.6779 44.648 52.5259 45.896C51.5899 46.904 49.7779 47.408 47.0899 47.408C46.5139 47.408 45.8899 47.384 45.2179 47.336C45.2179 47.336 45.2179 47.108 45.2179 46.652C45.2179 46.316 45.0859 45.932 44.8219 45.5C47.9899 45.5 49.8499 45.2 50.4019 44.6C50.9779 44 51.2659 43.28 51.2659 42.44V25.88H48.5659V25.16L52.8499 22.28H54.2539ZM61.0261 18.428C60.5701 17.948 60.3421 17.384 60.3421 16.736C60.3421 16.088 60.5701 15.536 61.0261 15.08C61.5061 14.6 62.0701 14.36 62.7181 14.36C63.3661 14.36 63.9181 14.6 64.3741 15.08C64.8541 15.536 65.0941 16.088 65.0941 16.736C65.0941 17.384 64.8541 17.948 64.3741 18.428C63.9181 18.884 63.3661 19.112 62.7181 19.112C62.0701 19.112 61.5061 18.884 61.0261 18.428ZM64.1581 38.3C64.3261 39.02 64.7581 39.38 65.4541 39.38H66.9661V41H58.1461V39.38L60.0541 39.344C60.5341 39.248 60.9061 38.9 61.1701 38.3V25.88H58.4701V25.16L62.7541 22.28H64.1581V38.3ZM78.0873 41.324C73.9353 41.324 71.8593 39.656 71.8593 36.32V25.736H68.5833V24.008H69.9513C71.7273 23.912 72.7353 22.424 72.9753 19.544L74.9193 17.312V24.008H79.1673V25.736H74.9193V35.06C74.9193 36.908 75.1953 38.108 75.7473 38.66C76.3233 39.188 77.1393 39.452 78.1953 39.452C79.2513 39.452 80.0553 39.248 80.6073 38.84V41.108C80.2473 41.252 79.7673 41.324 79.1673 41.324H78.0873ZM100.196 39.092C99.8124 40.676 98.9724 41.468 97.6764 41.468C96.4044 41.468 95.5044 40.616 94.9764 38.912C93.6564 40.64 92.1444 41.504 90.4404 41.504C88.3764 41.504 86.6124 41 85.1484 39.992C83.6844 38.96 82.9524 37.676 82.9524 36.14V36.032C82.9524 33.344 84.4644 31.292 87.4884 29.876C89.1684 29.084 90.5004 28.688 91.4844 28.688C92.4684 28.688 93.6324 28.976 94.9764 29.552L95.0124 27.968C95.0124 26.648 94.7964 25.772 94.3644 25.34C93.4284 24.476 92.1924 24.044 90.6564 24.044C89.1204 24.044 86.9724 24.908 84.2124 26.636L84.1404 23.828C86.4444 22.676 88.7964 22.1 91.1964 22.1H91.3764C92.8404 22.1 94.3044 22.628 95.7684 23.684C96.5364 24.236 97.1484 24.968 97.6044 25.88C98.0844 26.792 98.3244 27.812 98.3244 28.94V38.624C98.4684 38.792 98.6484 38.876 98.8644 38.876C98.9124 38.876 99.3564 38.408 100.196 37.472V39.092ZM94.9764 32.396C94.7844 31.316 93.9084 30.776 92.3484 30.776H92.1324C90.9324 30.776 89.6964 31.316 88.4244 32.396C87.1524 33.476 86.5164 34.628 86.5164 35.852C86.5164 36.02 86.5284 36.188 86.5524 36.356C86.7924 38.324 88.1244 39.308 90.5484 39.308C91.7964 39.308 92.7204 39.008 93.3204 38.408C93.9204 37.808 94.3044 37.304 94.4724 36.896C94.6404 36.488 94.7604 35.972 94.8324 35.348C94.9284 34.724 94.9764 34.316 94.9764 34.124V32.396ZM107.13 15.692C106.914 16.532 106.638 17.444 106.302 18.428C105.966 19.412 105.594 20.396 105.186 21.38C104.802 22.34 104.418 23.252 104.034 24.116H101.694C101.862 23.444 102.03 22.724 102.198 21.956C102.39 21.188 102.558 20.42 102.702 19.652C102.87 18.86 103.014 18.092 103.134 17.348C103.278 16.604 103.398 15.92 103.494 15.296H106.878L107.13 15.692ZM117.023 39.344C119.807 39.344 121.199 38.468 121.199 36.716C121.199 35.828 120.995 35.264 120.587 35.024C119.507 34.376 118.751 34.052 118.319 34.052C118.295 34.052 117.527 33.86 116.015 33.476C114.503 33.068 113.291 32.66 112.379 32.252C111.467 31.82 110.735 31.244 110.183 30.524C109.655 29.78 109.391 28.94 109.391 28.004C109.391 27.044 109.643 26.216 110.147 25.52C110.651 24.8 111.287 24.236 112.055 23.828C113.591 23.06 114.875 22.676 115.907 22.676C116.939 22.676 117.983 22.904 119.039 23.36C119.015 23.264 119.003 23.108 119.003 22.892C119.003 22.652 118.931 22.424 118.787 22.208H120.587L123.683 27.644L122.675 28.472L121.919 27.5C119.663 25.7 117.899 24.8 116.627 24.8C115.379 24.8 114.359 25.052 113.567 25.556C112.775 26.036 112.379 26.504 112.379 26.96C112.379 27.392 112.643 27.956 113.171 28.652C113.723 29.348 114.983 29.924 116.951 30.38C118.943 30.836 120.383 31.28 121.271 31.712C123.167 32.672 124.115 34.136 124.115 36.104V36.212C124.115 37.7 123.431 38.924 122.063 39.884C120.719 40.844 118.967 41.324 116.807 41.324C115.727 41.324 114.527 41.012 113.207 40.388L113.243 40.46L113.315 40.568H113.279C113.303 40.64 113.315 40.796 113.315 41.036C113.315 41.3 113.387 41.54 113.531 41.756H111.731L108.635 36.32L109.643 35.492L110.399 36.464L112.811 38.156C114.419 38.948 115.823 39.344 117.023 39.344ZM139.622 27.536C143.198 27.536 144.986 25.736 144.986 22.136C144.986 18.536 143.87 16.592 141.638 16.304C140.846 16.208 139.862 16.16 138.686 16.16C137.534 16.16 136.67 16.184 136.094 16.232C135.686 16.304 135.254 16.76 134.798 17.6V27.536H139.622ZM134.798 38.264C134.966 38.984 135.518 39.344 136.454 39.344H138.794V40.964H127.346V39.344L129.902 39.308C130.574 39.212 131.066 38.864 131.378 38.264V17.78C131.306 17.372 131.114 17.024 130.802 16.736C130.514 16.424 130.142 16.232 129.686 16.16H127.346V14.504L140.414 14.54C143.054 14.54 145.106 15.26 146.57 16.7C148.058 18.14 148.802 19.976 148.802 22.208C148.802 26.864 145.85 29.192 139.946 29.192H134.798V38.264ZM160.342 41.684C157.918 41.684 155.866 40.748 154.186 38.876C152.506 37.004 151.666 34.76 151.666 32.144C151.666 29.528 152.506 27.26 154.186 25.34C155.866 23.42 157.918 22.46 160.342 22.46C162.79 22.46 164.89 23.42 166.642 25.34C168.418 27.26 169.306 29.528 169.306 32.144C169.306 34.76 168.418 37.004 166.642 38.876C164.89 40.748 162.79 41.684 160.342 41.684ZM165.742 32.108C165.742 30.044 165.166 28.268 164.014 26.78C162.886 25.268 161.59 24.512 160.126 24.512C158.662 24.512 157.438 25.28 156.454 26.816C155.494 28.328 155.014 30.128 155.014 32.216C155.014 34.28 155.578 36.044 156.706 37.508C157.858 38.948 159.142 39.668 160.558 39.668C161.998 39.668 163.222 38.924 164.23 37.436C165.238 35.948 165.742 34.172 165.742 32.108ZM184.059 22.46H184.131C184.803 22.46 185.367 22.484 185.823 22.532C185.463 23.924 185.283 24.872 185.283 25.376C184.803 25.304 184.239 25.268 183.591 25.268C181.695 25.268 180.123 26.096 178.875 27.752C177.651 29.384 177.039 31.016 177.039 32.648V38.3C177.207 39.02 177.639 39.38 178.335 39.38H180.063V41H171.027V39.38L172.935 39.344C173.415 39.248 173.787 38.9 174.051 38.3V26.564H171.351V25.844L175.635 22.964H177.039V27.608C178.455 24.176 180.795 22.46 184.059 22.46ZM196.423 41.324C192.271 41.324 190.195 39.656 190.195 36.32V25.736H186.919V24.008H188.287C190.063 23.912 191.071 22.424 191.311 19.544L193.255 17.312V24.008H197.503V25.736H193.255V35.06C193.255 36.908 193.531 38.108 194.083 38.66C194.659 39.188 195.475 39.452 196.531 39.452C197.587 39.452 198.391 39.248 198.943 38.84V41.108C198.583 41.252 198.103 41.324 197.503 41.324H196.423ZM215.688 16.412L215.04 16.232C214.608 16.112 213.84 16.052 212.736 16.052C211.656 16.052 210.708 16.4 209.892 17.096C209.076 17.792 208.668 18.776 208.668 20.048V24.152H213.96V25.7H208.668V38.3C208.836 39.02 209.388 39.38 210.324 39.38H212.556V41H201.54V39.38L203.988 39.344C204.66 39.248 205.152 38.9 205.464 38.3V25.7H200.568V24.152H205.464V21.38C205.464 19.34 206.136 17.66 207.48 16.34C208.824 15.02 210.372 14.36 212.124 14.36C213.9 14.36 215.088 14.444 215.688 14.612V16.412ZM224.361 41.684C221.937 41.684 219.885 40.748 218.205 38.876C216.525 37.004 215.685 34.76 215.685 32.144C215.685 29.528 216.525 27.26 218.205 25.34C219.885 23.42 221.937 22.46 224.361 22.46C226.809 22.46 228.909 23.42 230.661 25.34C232.437 27.26 233.325 29.528 233.325 32.144C233.325 34.76 232.437 37.004 230.661 38.876C228.909 40.748 226.809 41.684 224.361 41.684ZM229.761 32.108C229.761 30.044 229.185 28.268 228.033 26.78C226.905 25.268 225.609 24.512 224.145 24.512C222.681 24.512 221.457 25.28 220.473 26.816C219.513 28.328 219.033 30.128 219.033 32.216C219.033 34.28 219.597 36.044 220.725 37.508C221.877 38.948 223.161 39.668 224.577 39.668C226.017 39.668 227.241 38.924 228.249 37.436C229.257 35.948 229.761 34.172 229.761 32.108ZM240.806 14.36V38.3C240.974 39.02 241.286 39.38 241.742 39.38H243.65V41H234.974V39.38L237.062 39.344C237.134 39.248 237.386 38.9 237.818 38.3V17.96H235.118V17.24L239.402 14.36H240.806ZM247.776 18.428C247.32 17.948 247.092 17.384 247.092 16.736C247.092 16.088 247.32 15.536 247.776 15.08C248.256 14.6 248.82 14.36 249.468 14.36C250.116 14.36 250.668 14.6 251.124 15.08C251.604 15.536 251.844 16.088 251.844 16.736C251.844 17.384 251.604 17.948 251.124 18.428C250.668 18.884 250.116 19.112 249.468 19.112C248.82 19.112 248.256 18.884 247.776 18.428ZM250.908 38.3C251.076 39.02 251.508 39.38 252.204 39.38H253.716V41H244.896V39.38L246.804 39.344C247.284 39.248 247.656 38.9 247.92 38.3V25.88H245.22V25.16L249.504 22.28H250.908V38.3ZM264.369 41.684C261.945 41.684 259.893 40.748 258.213 38.876C256.533 37.004 255.693 34.76 255.693 32.144C255.693 29.528 256.533 27.26 258.213 25.34C259.893 23.42 261.945 22.46 264.369 22.46C266.817 22.46 268.917 23.42 270.669 25.34C272.445 27.26 273.333 29.528 273.333 32.144C273.333 34.76 272.445 37.004 270.669 38.876C268.917 40.748 266.817 41.684 264.369 41.684ZM269.769 32.108C269.769 30.044 269.193 28.268 268.041 26.78C266.913 25.268 265.617 24.512 264.153 24.512C262.689 24.512 261.465 25.28 260.481 26.816C259.521 28.328 259.041 30.128 259.041 32.216C259.041 34.28 259.605 36.044 260.733 37.508C261.885 38.948 263.169 39.668 264.585 39.668C266.025 39.668 267.249 38.924 268.257 37.436C269.265 35.948 269.769 34.172 269.769 32.108Z" fill="white"/>
<path d="M17.516 26.024C18.716 25.64 19.316 24.848 19.316 23.648V22.028H20.936V31.676H19.316V29.84C19.316 28.904 18.716 28.184 17.516 27.68H10.892V37.724C11.012 38.42 11.384 38.936 12.008 39.272H15.176V41H3.44V39.38H5.996C6.668 39.284 7.16 38.936 7.472 38.336V17.78C7.4 17.372 7.208 17.024 6.896 16.736C6.608 16.424 6.236 16.232 5.78 16.16H3.44V14.54H25.184V20.264H23.564V18.068C23.468 17.396 22.868 16.784 21.764 16.232H12.188C11.78 16.304 11.348 16.76 10.892 17.6V26.024H17.516ZM39.1146 22.496H44.8386V38.624C44.9826 38.792 45.1626 38.876 45.3786 38.876C45.5226 38.876 45.9666 38.408 46.7106 37.472V39.092C46.3266 40.676 45.5466 41.468 44.3706 41.468C43.1946 41.468 42.3426 40.616 41.8146 38.912V38.12C40.9266 40.4 38.9586 41.54 35.9106 41.54C31.9026 41.516 29.8986 38.552 29.8986 32.648V24.116H27.1986V22.496H32.8866V31.928C32.9346 36.968 34.0386 39.488 36.1986 39.488C39.9426 39.488 41.8146 37.052 41.8146 32.18V24.116H39.1146V22.496ZM50.0139 18.428C49.5579 17.948 49.3299 17.384 49.3299 16.736C49.3299 16.088 49.5579 15.536 50.0139 15.08C50.4939 14.6 51.0579 14.36 51.7059 14.36C52.3539 14.36 52.9059 14.6 53.3619 15.08C53.8419 15.536 54.0819 16.088 54.0819 16.736C54.0819 17.384 53.8419 17.948 53.3619 18.428C52.9059 18.884 52.3539 19.112 51.7059 19.112C51.0579 19.112 50.4939 18.884 50.0139 18.428ZM53.2539 22.28V41.432C53.2539 43.16 52.6779 44.648 51.5259 45.896C50.5899 46.904 48.7779 47.408 46.0899 47.408C45.5139 47.408 44.8899 47.384 44.2179 47.336C44.2179 47.336 44.2179 47.108 44.2179 46.652C44.2179 46.316 44.0859 45.932 43.8219 45.5C46.9899 45.5 48.8499 45.2 49.4019 44.6C49.9779 44 50.2659 43.28 50.2659 42.44V25.88H47.5659V25.16L51.8499 22.28H53.2539ZM60.0261 18.428C59.5701 17.948 59.3421 17.384 59.3421 16.736C59.3421 16.088 59.5701 15.536 60.0261 15.08C60.5061 14.6 61.0701 14.36 61.7181 14.36C62.3661 14.36 62.9181 14.6 63.3741 15.08C63.8541 15.536 64.0941 16.088 64.0941 16.736C64.0941 17.384 63.8541 17.948 63.3741 18.428C62.9181 18.884 62.3661 19.112 61.7181 19.112C61.0701 19.112 60.5061 18.884 60.0261 18.428ZM63.1581 38.3C63.3261 39.02 63.7581 39.38 64.4541 39.38H65.9661V41H57.1461V39.38L59.0541 39.344C59.5341 39.248 59.9061 38.9 60.1701 38.3V25.88H57.4701V25.16L61.7541 22.28H63.1581V38.3ZM77.0873 41.324C72.9353 41.324 70.8593 39.656 70.8593 36.32V25.736H67.5833V24.008H68.9513C70.7273 23.912 71.7353 22.424 71.9753 19.544L73.9193 17.312V24.008H78.1673V25.736H73.9193V35.06C73.9193 36.908 74.1953 38.108 74.7473 38.66C75.3233 39.188 76.1393 39.452 77.1953 39.452C78.2513 39.452 79.0553 39.248 79.6073 38.84V41.108C79.2473 41.252 78.7673 41.324 78.1673 41.324H77.0873ZM99.1964 39.092C98.8124 40.676 97.9724 41.468 96.6764 41.468C95.4044 41.468 94.5044 40.616 93.9764 38.912C92.6564 40.64 91.1444 41.504 89.4404 41.504C87.3764 41.504 85.6124 41 84.1484 39.992C82.6844 38.96 81.9524 37.676 81.9524 36.14V36.032C81.9524 33.344 83.4644 31.292 86.4884 29.876C88.1684 29.084 89.5004 28.688 90.4844 28.688C91.4684 28.688 92.6324 28.976 93.9764 29.552L94.0124 27.968C94.0124 26.648 93.7964 25.772 93.3644 25.34C92.4284 24.476 91.1924 24.044 89.6564 24.044C88.1204 24.044 85.9724 24.908 83.2124 26.636L83.1404 23.828C85.4444 22.676 87.7964 22.1 90.1964 22.1H90.3764C91.8404 22.1 93.3044 22.628 94.7684 23.684C95.5364 24.236 96.1484 24.968 96.6044 25.88C97.0844 26.792 97.3244 27.812 97.3244 28.94V38.624C97.4684 38.792 97.6484 38.876 97.8644 38.876C97.9124 38.876 98.3564 38.408 99.1964 37.472V39.092ZM93.9764 32.396C93.7844 31.316 92.9084 30.776 91.3484 30.776H91.1324C89.9324 30.776 88.6964 31.316 87.4244 32.396C86.1524 33.476 85.5164 34.628 85.5164 35.852C85.5164 36.02 85.5284 36.188 85.5524 36.356C85.7924 38.324 87.1244 39.308 89.5484 39.308C90.7964 39.308 91.7204 39.008 92.3204 38.408C92.9204 37.808 93.3044 37.304 93.4724 36.896C93.6404 36.488 93.7604 35.972 93.8324 35.348C93.9284 34.724 93.9764 34.316 93.9764 34.124V32.396ZM106.13 15.692C105.914 16.532 105.638 17.444 105.302 18.428C104.966 19.412 104.594 20.396 104.186 21.38C103.802 22.34 103.418 23.252 103.034 24.116H100.694C100.862 23.444 101.03 22.724 101.198 21.956C101.39 21.188 101.558 20.42 101.702 19.652C101.87 18.86 102.014 18.092 102.134 17.348C102.278 16.604 102.398 15.92 102.494 15.296H105.878L106.13 15.692ZM116.023 39.344C118.807 39.344 120.199 38.468 120.199 36.716C120.199 35.828 119.995 35.264 119.587 35.024C118.507 34.376 117.751 34.052 117.319 34.052C117.295 34.052 116.527 33.86 115.015 33.476C113.503 33.068 112.291 32.66 111.379 32.252C110.467 31.82 109.735 31.244 109.183 30.524C108.655 29.78 108.391 28.94 108.391 28.004C108.391 27.044 108.643 26.216 109.147 25.52C109.651 24.8 110.287 24.236 111.055 23.828C112.591 23.06 113.875 22.676 114.907 22.676C115.939 22.676 116.983 22.904 118.039 23.36C118.015 23.264 118.003 23.108 118.003 22.892C118.003 22.652 117.931 22.424 117.787 22.208H119.587L122.683 27.644L121.675 28.472L120.919 27.5C118.663 25.7 116.899 24.8 115.627 24.8C114.379 24.8 113.359 25.052 112.567 25.556C111.775 26.036 111.379 26.504 111.379 26.96C111.379 27.392 111.643 27.956 112.171 28.652C112.723 29.348 113.983 29.924 115.951 30.38C117.943 30.836 119.383 31.28 120.271 31.712C122.167 32.672 123.115 34.136 123.115 36.104V36.212C123.115 37.7 122.431 38.924 121.063 39.884C119.719 40.844 117.967 41.324 115.807 41.324C114.727 41.324 113.527 41.012 112.207 40.388L112.243 40.46L112.315 40.568H112.279C112.303 40.64 112.315 40.796 112.315 41.036C112.315 41.3 112.387 41.54 112.531 41.756H110.731L107.635 36.32L108.643 35.492L109.399 36.464L111.811 38.156C113.419 38.948 114.823 39.344 116.023 39.344ZM138.622 27.536C142.198 27.536 143.986 25.736 143.986 22.136C143.986 18.536 142.87 16.592 140.638 16.304C139.846 16.208 138.862 16.16 137.686 16.16C136.534 16.16 135.67 16.184 135.094 16.232C134.686 16.304 134.254 16.76 133.798 17.6V27.536H138.622ZM133.798 38.264C133.966 38.984 134.518 39.344 135.454 39.344H137.794V40.964H126.346V39.344L128.902 39.308C129.574 39.212 130.066 38.864 130.378 38.264V17.78C130.306 17.372 130.114 17.024 129.802 16.736C129.514 16.424 129.142 16.232 128.686 16.16H126.346V14.504L139.414 14.54C142.054 14.54 144.106 15.26 145.57 16.7C147.058 18.14 147.802 19.976 147.802 22.208C147.802 26.864 144.85 29.192 138.946 29.192H133.798V38.264ZM159.342 41.684C156.918 41.684 154.866 40.748 153.186 38.876C151.506 37.004 150.666 34.76 150.666 32.144C150.666 29.528 151.506 27.26 153.186 25.34C154.866 23.42 156.918 22.46 159.342 22.46C161.79 22.46 163.89 23.42 165.642 25.34C167.418 27.26 168.306 29.528 168.306 32.144C168.306 34.76 167.418 37.004 165.642 38.876C163.89 40.748 161.79 41.684 159.342 41.684ZM164.742 32.108C164.742 30.044 164.166 28.268 163.014 26.78C161.886 25.268 160.59 24.512 159.126 24.512C157.662 24.512 156.438 25.28 155.454 26.816C154.494 28.328 154.014 30.128 154.014 32.216C154.014 34.28 154.578 36.044 155.706 37.508C156.858 38.948 158.142 39.668 159.558 39.668C160.998 39.668 162.222 38.924 163.23 37.436C164.238 35.948 164.742 34.172 164.742 32.108ZM183.059 22.46H183.131C183.803 22.46 184.367 22.484 184.823 22.532C184.463 23.924 184.283 24.872 184.283 25.376C183.803 25.304 183.239 25.268 182.591 25.268C180.695 25.268 179.123 26.096 177.875 27.752C176.651 29.384 176.039 31.016 176.039 32.648V38.3C176.207 39.02 176.639 39.38 177.335 39.38H179.063V41H170.027V39.38L171.935 39.344C172.415 39.248 172.787 38.9 173.051 38.3V26.564H170.351V25.844L174.635 22.964H176.039V27.608C177.455 24.176 179.795 22.46 183.059 22.46ZM195.423 41.324C191.271 41.324 189.195 39.656 189.195 36.32V25.736H185.919V24.008H187.287C189.063 23.912 190.071 22.424 190.311 19.544L192.255 17.312V24.008H196.503V25.736H192.255V35.06C192.255 36.908 192.531 38.108 193.083 38.66C193.659 39.188 194.475 39.452 195.531 39.452C196.587 39.452 197.391 39.248 197.943 38.84V41.108C197.583 41.252 197.103 41.324 196.503 41.324H195.423ZM214.688 16.412L214.04 16.232C213.608 16.112 212.84 16.052 211.736 16.052C210.656 16.052 209.708 16.4 208.892 17.096C208.076 17.792 207.668 18.776 207.668 20.048V24.152H212.96V25.7H207.668V38.3C207.836 39.02 208.388 39.38 209.324 39.38H211.556V41H200.54V39.38L202.988 39.344C203.66 39.248 204.152 38.9 204.464 38.3V25.7H199.568V24.152H204.464V21.38C204.464 19.34 205.136 17.66 206.48 16.34C207.824 15.02 209.372 14.36 211.124 14.36C212.9 14.36 214.088 14.444 214.688 14.612V16.412ZM223.361 41.684C220.937 41.684 218.885 40.748 217.205 38.876C215.525 37.004 214.685 34.76 214.685 32.144C214.685 29.528 215.525 27.26 217.205 25.34C218.885 23.42 220.937 22.46 223.361 22.46C225.809 22.46 227.909 23.42 229.661 25.34C231.437 27.26 232.325 29.528 232.325 32.144C232.325 34.76 231.437 37.004 229.661 38.876C227.909 40.748 225.809 41.684 223.361 41.684ZM228.761 32.108C228.761 30.044 228.185 28.268 227.033 26.78C225.905 25.268 224.609 24.512 223.145 24.512C221.681 24.512 220.457 25.28 219.473 26.816C218.513 28.328 218.033 30.128 218.033 32.216C218.033 34.28 218.597 36.044 219.725 37.508C220.877 38.948 222.161 39.668 223.577 39.668C225.017 39.668 226.241 38.924 227.249 37.436C228.257 35.948 228.761 34.172 228.761 32.108ZM239.806 14.36V38.3C239.974 39.02 240.286 39.38 240.742 39.38H242.65V41H233.974V39.38L236.062 39.344C236.134 39.248 236.386 38.9 236.818 38.3V17.96H234.118V17.24L238.402 14.36H239.806ZM246.776 18.428C246.32 17.948 246.092 17.384 246.092 16.736C246.092 16.088 246.32 15.536 246.776 15.08C247.256 14.6 247.82 14.36 248.468 14.36C249.116 14.36 249.668 14.6 250.124 15.08C250.604 15.536 250.844 16.088 250.844 16.736C250.844 17.384 250.604 17.948 250.124 18.428C249.668 18.884 249.116 19.112 248.468 19.112C247.82 19.112 247.256 18.884 246.776 18.428ZM249.908 38.3C250.076 39.02 250.508 39.38 251.204 39.38H252.716V41H243.896V39.38L245.804 39.344C246.284 39.248 246.656 38.9 246.92 38.3V25.88H244.22V25.16L248.504 22.28H249.908V38.3ZM263.369 41.684C260.945 41.684 258.893 40.748 257.213 38.876C255.533 37.004 254.693 34.76 254.693 32.144C254.693 29.528 255.533 27.26 257.213 25.34C258.893 23.42 260.945 22.46 263.369 22.46C265.817 22.46 267.917 23.42 269.669 25.34C271.445 27.26 272.333 29.528 272.333 32.144C272.333 34.76 271.445 37.004 269.669 38.876C267.917 40.748 265.817 41.684 263.369 41.684ZM268.769 32.108C268.769 30.044 268.193 28.268 267.041 26.78C265.913 25.268 264.617 24.512 263.153 24.512C261.689 24.512 260.465 25.28 259.481 26.816C258.521 28.328 258.041 30.128 258.041 32.216C258.041 34.28 258.605 36.044 259.733 37.508C260.885 38.948 262.169 39.668 263.585 39.668C265.025 39.668 266.249 38.924 267.257 37.436C268.265 35.948 268.769 34.172 268.769 32.108Z" fill="black"/>
<path d="M15.516 25.024C16.716 24.64 17.316 23.848 17.316 22.648V21.028H18.936V30.676H17.316V28.84C17.316 27.904 16.716 27.184 15.516 26.68H8.892V36.724C9.012 37.42 9.384 37.936 10.008 38.272H13.176V40H1.44V38.38H3.996C4.668 38.284 5.16 37.936 5.472 37.336V16.78C5.4 16.372 5.208 16.024 4.896 15.736C4.608 15.424 4.236 15.232 3.78 15.16H1.44V13.54H23.184V19.264H21.564V17.068C21.468 16.396 20.868 15.784 19.764 15.232H10.188C9.78 15.304 9.348 15.76 8.892 16.6V25.024H15.516ZM37.1146 21.496H42.8386V37.624C42.9826 37.792 43.1626 37.876 43.3786 37.876C43.5226 37.876 43.9666 37.408 44.7106 36.472V38.092C44.3266 39.676 43.5466 40.468 42.3706 40.468C41.1946 40.468 40.3426 39.616 39.8146 37.912V37.12C38.9266 39.4 36.9586 40.54 33.9106 40.54C29.9026 40.516 27.8986 37.552 27.8986 31.648V23.116H25.1986V21.496H30.8866V30.928C30.9346 35.968 32.0386 38.488 34.1986 38.488C37.9426 38.488 39.8146 36.052 39.8146 31.18V23.116H37.1146V21.496ZM48.0139 17.428C47.5579 16.948 47.3299 16.384 47.3299 15.736C47.3299 15.088 47.5579 14.536 48.0139 14.08C48.4939 13.6 49.0579 13.36 49.7059 13.36C50.3539 13.36 50.9059 13.6 51.3619 14.08C51.8419 14.536 52.0819 15.088 52.0819 15.736C52.0819 16.384 51.8419 16.948 51.3619 17.428C50.9059 17.884 50.3539 18.112 49.7059 18.112C49.0579 18.112 48.4939 17.884 48.0139 17.428ZM51.2539 21.28V40.432C51.2539 42.16 50.6779 43.648 49.5259 44.896C48.5899 45.904 46.7779 46.408 44.0899 46.408C43.5139 46.408 42.8899 46.384 42.2179 46.336C42.2179 46.336 42.2179 46.108 42.2179 45.652C42.2179 45.316 42.0859 44.932 41.8219 44.5C44.9899 44.5 46.8499 44.2 47.4019 43.6C47.9779 43 48.2659 42.28 48.2659 41.44V24.88H45.5659V24.16L49.8499 21.28H51.2539ZM58.0261 17.428C57.5701 16.948 57.3421 16.384 57.3421 15.736C57.3421 15.088 57.5701 14.536 58.0261 14.08C58.5061 13.6 59.0701 13.36 59.7181 13.36C60.3661 13.36 60.9181 13.6 61.3741 14.08C61.8541 14.536 62.0941 15.088 62.0941 15.736C62.0941 16.384 61.8541 16.948 61.3741 17.428C60.9181 17.884 60.3661 18.112 59.7181 18.112C59.0701 18.112 58.5061 17.884 58.0261 17.428ZM61.1581 37.3C61.3261 38.02 61.7581 38.38 62.4541 38.38H63.9661V40H55.1461V38.38L57.0541 38.344C57.5341 38.248 57.9061 37.9 58.1701 37.3V24.88H55.4701V24.16L59.7541 21.28H61.1581V37.3ZM75.0873 40.324C70.9353 40.324 68.8593 38.656 68.8593 35.32V24.736H65.5833V23.008H66.9513C68.7273 22.912 69.7353 21.424 69.9753 18.544L71.9193 16.312V23.008H76.1673V24.736H71.9193V34.06C71.9193 35.908 72.1953 37.108 72.7473 37.66C73.3233 38.188 74.1393 38.452 75.1953 38.452C76.2513 38.452 77.0553 38.248 77.6073 37.84V40.108C77.2473 40.252 76.7673 40.324 76.1673 40.324H75.0873ZM97.1964 38.092C96.8124 39.676 95.9724 40.468 94.6764 40.468C93.4044 40.468 92.5044 39.616 91.9764 37.912C90.6564 39.64 89.1444 40.504 87.4404 40.504C85.3764 40.504 83.6124 40 82.1484 38.992C80.6844 37.96 79.9524 36.676 79.9524 35.14V35.032C79.9524 32.344 81.4644 30.292 84.4884 28.876C86.1684 28.084 87.5004 27.688 88.4844 27.688C89.4684 27.688 90.6324 27.976 91.9764 28.552L92.0124 26.968C92.0124 25.648 91.7964 24.772 91.3644 24.34C90.4284 23.476 89.1924 23.044 87.6564 23.044C86.1204 23.044 83.9724 23.908 81.2124 25.636L81.1404 22.828C83.4444 21.676 85.7964 21.1 88.1964 21.1H88.3764C89.8404 21.1 91.3044 21.628 92.7684 22.684C93.5364 23.236 94.1484 23.968 94.6044 24.88C95.0844 25.792 95.3244 26.812 95.3244 27.94V37.624C95.4684 37.792 95.6484 37.876 95.8644 37.876C95.9124 37.876 96.3564 37.408 97.1964 36.472V38.092ZM91.9764 31.396C91.7844 30.316 90.9084 29.776 89.3484 29.776H89.1324C87.9324 29.776 86.6964 30.316 85.4244 31.396C84.1524 32.476 83.5164 33.628 83.5164 34.852C83.5164 35.02 83.5284 35.188 83.5524 35.356C83.7924 37.324 85.1244 38.308 87.5484 38.308C88.7964 38.308 89.7204 38.008 90.3204 37.408C90.9204 36.808 91.3044 36.304 91.4724 35.896C91.6404 35.488 91.7604 34.972 91.8324 34.348C91.9284 33.724 91.9764 33.316 91.9764 33.124V31.396ZM104.13 14.692C103.914 15.532 103.638 16.444 103.302 17.428C102.966 18.412 102.594 19.396 102.186 20.38C101.802 21.34 101.418 22.252 101.034 23.116H98.6937C98.8617 22.444 99.0297 21.724 99.1977 20.956C99.3897 20.188 99.5577 19.42 99.7017 18.652C99.8697 17.86 100.014 17.092 100.134 16.348C100.278 15.604 100.398 14.92 100.494 14.296H103.878L104.13 14.692ZM114.023 38.344C116.807 38.344 118.199 37.468 118.199 35.716C118.199 34.828 117.995 34.264 117.587 34.024C116.507 33.376 115.751 33.052 115.319 33.052C115.295 33.052 114.527 32.86 113.015 32.476C111.503 32.068 110.291 31.66 109.379 31.252C108.467 30.82 107.735 30.244 107.183 29.524C106.655 28.78 106.391 27.94 106.391 27.004C106.391 26.044 106.643 25.216 107.147 24.52C107.651 23.8 108.287 23.236 109.055 22.828C110.591 22.06 111.875 21.676 112.907 21.676C113.939 21.676 114.983 21.904 116.039 22.36C116.015 22.264 116.003 22.108 116.003 21.892C116.003 21.652 115.931 21.424 115.787 21.208H117.587L120.683 26.644L119.675 27.472L118.919 26.5C116.663 24.7 114.899 23.8 113.627 23.8C112.379 23.8 111.359 24.052 110.567 24.556C109.775 25.036 109.379 25.504 109.379 25.96C109.379 26.392 109.643 26.956 110.171 27.652C110.723 28.348 111.983 28.924 113.951 29.38C115.943 29.836 117.383 30.28 118.271 30.712C120.167 31.672 121.115 33.136 121.115 35.104V35.212C121.115 36.7 120.431 37.924 119.063 38.884C117.719 39.844 115.967 40.324 113.807 40.324C112.727 40.324 111.527 40.012 110.207 39.388L110.243 39.46L110.315 39.568H110.279C110.303 39.64 110.315 39.796 110.315 40.036C110.315 40.3 110.387 40.54 110.531 40.756H108.731L105.635 35.32L106.643 34.492L107.399 35.464L109.811 37.156C111.419 37.948 112.823 38.344 114.023 38.344ZM136.622 26.536C140.198 26.536 141.986 24.736 141.986 21.136C141.986 17.536 140.87 15.592 138.638 15.304C137.846 15.208 136.862 15.16 135.686 15.16C134.534 15.16 133.67 15.184 133.094 15.232C132.686 15.304 132.254 15.76 131.798 16.6V26.536H136.622ZM131.798 37.264C131.966 37.984 132.518 38.344 133.454 38.344H135.794V39.964H124.346V38.344L126.902 38.308C127.574 38.212 128.066 37.864 128.378 37.264V16.78C128.306 16.372 128.114 16.024 127.802 15.736C127.514 15.424 127.142 15.232 126.686 15.16H124.346V13.504L137.414 13.54C140.054 13.54 142.106 14.26 143.57 15.7C145.058 17.14 145.802 18.976 145.802 21.208C145.802 25.864 142.85 28.192 136.946 28.192H131.798V37.264ZM157.342 40.684C154.918 40.684 152.866 39.748 151.186 37.876C149.506 36.004 148.666 33.76 148.666 31.144C148.666 28.528 149.506 26.26 151.186 24.34C152.866 22.42 154.918 21.46 157.342 21.46C159.79 21.46 161.89 22.42 163.642 24.34C165.418 26.26 166.306 28.528 166.306 31.144C166.306 33.76 165.418 36.004 163.642 37.876C161.89 39.748 159.79 40.684 157.342 40.684ZM162.742 31.108C162.742 29.044 162.166 27.268 161.014 25.78C159.886 24.268 158.59 23.512 157.126 23.512C155.662 23.512 154.438 24.28 153.454 25.816C152.494 27.328 152.014 29.128 152.014 31.216C152.014 33.28 152.578 35.044 153.706 36.508C154.858 37.948 156.142 38.668 157.558 38.668C158.998 38.668 160.222 37.924 161.23 36.436C162.238 34.948 162.742 33.172 162.742 31.108ZM181.059 21.46H181.131C181.803 21.46 182.367 21.484 182.823 21.532C182.463 22.924 182.283 23.872 182.283 24.376C181.803 24.304 181.239 24.268 180.591 24.268C178.695 24.268 177.123 25.096 175.875 26.752C174.651 28.384 174.039 30.016 174.039 31.648V37.3C174.207 38.02 174.639 38.38 175.335 38.38H177.063V40H168.027V38.38L169.935 38.344C170.415 38.248 170.787 37.9 171.051 37.3V25.564H168.351V24.844L172.635 21.964H174.039V26.608C175.455 23.176 177.795 21.46 181.059 21.46ZM193.423 40.324C189.271 40.324 187.195 38.656 187.195 35.32V24.736H183.919V23.008H185.287C187.063 22.912 188.071 21.424 188.311 18.544L190.255 16.312V23.008H194.503V24.736H190.255V34.06C190.255 35.908 190.531 37.108 191.083 37.66C191.659 38.188 192.475 38.452 193.531 38.452C194.587 38.452 195.391 38.248 195.943 37.84V40.108C195.583 40.252 195.103 40.324 194.503 40.324H193.423ZM212.688 15.412L212.04 15.232C211.608 15.112 210.84 15.052 209.736 15.052C208.656 15.052 207.708 15.4 206.892 16.096C206.076 16.792 205.668 17.776 205.668 19.048V23.152H210.96V24.7H205.668V37.3C205.836 38.02 206.388 38.38 207.324 38.38H209.556V40H198.54V38.38L200.988 38.344C201.66 38.248 202.152 37.9 202.464 37.3V24.7H197.568V23.152H202.464V20.38C202.464 18.34 203.136 16.66 204.48 15.34C205.824 14.02 207.372 13.36 209.124 13.36C210.9 13.36 212.088 13.444 212.688 13.612V15.412ZM221.361 40.684C218.937 40.684 216.885 39.748 215.205 37.876C213.525 36.004 212.685 33.76 212.685 31.144C212.685 28.528 213.525 26.26 215.205 24.34C216.885 22.42 218.937 21.46 221.361 21.46C223.809 21.46 225.909 22.42 227.661 24.34C229.437 26.26 230.325 28.528 230.325 31.144C230.325 33.76 229.437 36.004 227.661 37.876C225.909 39.748 223.809 40.684 221.361 40.684ZM226.761 31.108C226.761 29.044 226.185 27.268 225.033 25.78C223.905 24.268 222.609 23.512 221.145 23.512C219.681 23.512 218.457 24.28 217.473 25.816C216.513 27.328 216.033 29.128 216.033 31.216C216.033 33.28 216.597 35.044 217.725 36.508C218.877 37.948 220.161 38.668 221.577 38.668C223.017 38.668 224.241 37.924 225.249 36.436C226.257 34.948 226.761 33.172 226.761 31.108ZM237.806 13.36V37.3C237.974 38.02 238.286 38.38 238.742 38.38H240.65V40H231.974V38.38L234.062 38.344C234.134 38.248 234.386 37.9 234.818 37.3V16.96H232.118V16.24L236.402 13.36H237.806ZM244.776 17.428C244.32 16.948 244.092 16.384 244.092 15.736C244.092 15.088 244.32 14.536 244.776 14.08C245.256 13.6 245.82 13.36 246.468 13.36C247.116 13.36 247.668 13.6 248.124 14.08C248.604 14.536 248.844 15.088 248.844 15.736C248.844 16.384 248.604 16.948 248.124 17.428C247.668 17.884 247.116 18.112 246.468 18.112C245.82 18.112 245.256 17.884 244.776 17.428ZM247.908 37.3C248.076 38.02 248.508 38.38 249.204 38.38H250.716V40H241.896V38.38L243.804 38.344C244.284 38.248 244.656 37.9 244.92 37.3V24.88H242.22V24.16L246.504 21.28H247.908V37.3ZM261.369 40.684C258.945 40.684 256.893 39.748 255.213 37.876C253.533 36.004 252.693 33.76 252.693 31.144C252.693 28.528 253.533 26.26 255.213 24.34C256.893 22.42 258.945 21.46 261.369 21.46C263.817 21.46 265.917 22.42 267.669 24.34C269.445 26.26 270.333 28.528 270.333 31.144C270.333 33.76 269.445 36.004 267.669 37.876C265.917 39.748 263.817 40.684 261.369 40.684ZM266.769 31.108C266.769 29.044 266.193 27.268 265.041 25.78C263.913 24.268 262.617 23.512 261.153 23.512C259.689 23.512 258.465 24.28 257.481 25.816C256.521 27.328 256.041 29.128 256.041 31.216C256.041 33.28 256.605 35.044 257.733 36.508C258.885 37.948 260.169 38.668 261.585 38.668C263.025 38.668 264.249 37.924 265.257 36.436C266.265 34.948 266.769 33.172 266.769 31.108Z" fill="white"/>
</svg>
